<svg xmlns="http://www.w3.org/2000/svg" xmlns:xlink="http://www.w3.org/1999/xlink" width="2000" zoomAndPan="magnify" viewBox="0 0 1500 1499.999933" height="2000" preserveAspectRatio="xMidYMid meet" version="1.0"><defs><g/><clipPath id="37266636ea"><path d="M 690.054688 1075 L 810 1075 L 810 1118.5625 L 690.054688 1118.5625 Z M 690.054688 1075 " clip-rule="nonzero"/></clipPath><clipPath id="5f06bacbae"><path d="M 740 60.453125 L 760 60.453125 L 760 145 L 740 145 Z M 740 60.453125 " clip-rule="nonzero"/></clipPath><clipPath id="3219341605"><path d="M 1148 534 L 1233.390625 534 L 1233.390625 554 L 1148 554 Z M 1148 534 " clip-rule="nonzero"/></clipPath><clipPath id="64710e7002"><rect x="0" width="1282" y="0" height="445"/></clipPath></defs><path fill="#dadad8" d="M 663.035156 220.230469 C 627.027344 220.230469 596.664062 245.609375 589.417969 279.847656 C 584.933594 279.195312 580.417969 278.863281 575.902344 278.863281 C 524.285156 278.863281 482.308594 320.855469 482.308594 372.460938 C 482.308594 376.816406 482.605469 381.175781 483.214844 385.496094 C 453.910156 396.152344 433.511719 424.519531 433.511719 456.324219 C 433.511719 472.167969 438.496094 487.433594 447.675781 500.191406 C 447.65625 500.222656 447.632812 500.246094 447.613281 500.277344 C 446.117188 502.113281 444.707031 504.003906 443.363281 505.933594 C 443.097656 506.320312 442.820312 506.691406 442.550781 507.085938 C 441.304688 508.933594 440.128906 510.824219 439.019531 512.746094 C 438.742188 513.214844 438.472656 513.695312 438.207031 514.175781 C 437.140625 516.109375 436.125 518.074219 435.195312 520.082031 C 434.996094 520.507812 434.8125 520.933594 434.621094 521.371094 C 433.734375 523.367188 432.902344 525.386719 432.15625 527.445312 C 432.070312 527.671875 431.984375 527.894531 431.898438 528.128906 C 431.140625 530.277344 430.476562 532.464844 429.871094 534.675781 C 429.753906 535.113281 429.625 535.539062 429.507812 535.976562 C 428.953125 538.164062 428.472656 540.386719 428.078125 542.617188 C 427.980469 543.085938 427.90625 543.566406 427.820312 544.046875 C 427.445312 546.324219 427.148438 548.605469 426.933594 550.914062 C 426.902344 551.285156 426.878906 551.660156 426.859375 552.035156 C 426.667969 554.488281 426.539062 556.957031 426.539062 559.433594 C 426.539062 559.445312 426.539062 559.445312 426.539062 559.453125 C 426.539062 559.464844 426.539062 559.464844 426.539062 559.464844 C 426.550781 590.585938 441.871094 619.273438 467.160156 636.621094 C 459.878906 650.160156 456.066406 665.253906 456.066406 680.832031 C 456.066406 733.539062 499.957031 776.339844 552.960938 774.363281 C 560.871094 814.613281 594.660156 845.679688 636.21875 849.46875 C 636.464844 849.492188 636.699219 849.511719 636.945312 849.523438 C 639.527344 849.75 642.144531 849.875 644.789062 849.875 C 696.398438 849.875 738.382812 807.886719 738.382812 756.277344 L 738.382812 295.574219 C 738.382812 254.03125 704.585938 220.230469 663.035156 220.230469 " fill-opacity="1" fill-rule="nonzero"/><path fill="#525463" d="M 561.671875 753.246094 C 563.945312 753.246094 566.175781 754.015625 567.992188 755.457031 C 570.179688 757.195312 571.546875 759.757812 571.78125 762.546875 C 574.972656 800.136719 607.03125 829.570312 644.789062 829.570312 C 685.199219 829.570312 718.078125 796.699219 718.078125 756.277344 L 718.078125 295.574219 C 718.078125 265.21875 693.386719 240.539062 663.035156 240.539062 C 633.847656 240.539062 609.742188 263.382812 608.164062 292.550781 C 607.992188 295.625 606.453125 298.445312 603.957031 300.238281 C 601.457031 302.042969 598.296875 302.609375 595.339844 301.796875 C 588.988281 300.058594 582.445312 299.171875 575.902344 299.171875 C 535.496094 299.171875 502.613281 332.042969 502.613281 372.460938 C 502.613281 378.429688 503.339844 384.398438 504.78125 390.207031 C 505.441406 392.875 505.003906 395.683594 503.554688 398.011719 C 502.101562 400.347656 499.773438 401.992188 497.09375 402.570312 C 472.015625 408.035156 453.816406 430.636719 453.816406 456.324219 C 453.816406 470.160156 459.035156 483.410156 468.496094 493.636719 C 472.199219 497.640625 472.082031 503.84375 468.238281 507.707031 C 454.445312 521.542969 446.84375 539.917969 446.84375 559.453125 C 446.84375 586.667969 461.800781 611.488281 485.882812 624.257812 C 488.457031 625.613281 490.316406 628.003906 491.007812 630.835938 C 491.691406 633.652344 491.136719 636.640625 489.472656 639.023438 C 480.898438 651.34375 476.371094 665.800781 476.371094 680.832031 C 476.371094 721.238281 509.242188 754.121094 549.660156 754.121094 C 553.121094 754.121094 556.675781 753.867188 560.21875 753.355469 C 560.710938 753.289062 561.191406 753.246094 561.671875 753.246094 Z M 644.789062 849.875 C 600.007812 849.875 561.5 817.441406 552.980469 774.363281 C 499.964844 776.351562 456.066406 733.539062 456.066406 680.832031 C 456.066406 665.253906 459.878906 650.160156 467.160156 636.621094 C 441.871094 619.261719 426.539062 590.585938 426.539062 559.453125 C 426.539062 537.601562 433.992188 516.878906 447.675781 500.191406 C 438.496094 487.433594 433.511719 472.167969 433.511719 456.324219 C 433.511719 424.519531 453.910156 396.152344 483.214844 385.496094 C 482.605469 381.175781 482.308594 376.816406 482.308594 372.460938 C 482.308594 320.855469 524.285156 278.863281 575.902344 278.863281 C 580.417969 278.863281 584.945312 279.195312 589.417969 279.847656 C 596.664062 245.621094 627.027344 220.230469 663.035156 220.230469 C 704.585938 220.230469 738.382812 254.03125 738.382812 295.574219 L 738.382812 756.277344 C 738.382812 807.886719 696.398438 849.875 644.789062 849.875 " fill-opacity="1" fill-rule="nonzero"/><path fill="#525463" d="M 663.035156 370.925781 C 621.484375 370.925781 587.6875 337.125 587.6875 295.574219 C 587.6875 289.96875 592.234375 285.417969 597.839844 285.417969 C 603.445312 285.417969 607.992188 289.96875 607.992188 295.574219 C 607.992188 325.925781 632.683594 350.617188 663.035156 350.617188 C 668.640625 350.617188 673.1875 355.167969 673.1875 360.773438 C 673.1875 366.375 668.640625 370.925781 663.035156 370.925781 " fill-opacity="1" fill-rule="nonzero"/><path fill="#525463" d="M 644.789062 849.875 C 593.175781 849.875 551.1875 807.886719 551.1875 756.277344 C 551.1875 704.671875 593.175781 662.679688 644.789062 662.679688 C 650.394531 662.679688 654.933594 667.230469 654.933594 672.835938 C 654.933594 678.4375 650.394531 682.988281 644.789062 682.988281 C 604.375 682.988281 571.492188 715.871094 571.492188 756.277344 C 571.492188 796.699219 604.375 829.570312 644.789062 829.570312 C 650.394531 829.570312 654.933594 834.117188 654.933594 839.734375 C 654.933594 845.339844 650.394531 849.875 644.789062 849.875 " fill-opacity="1" fill-rule="nonzero"/><path fill="#525463" d="M 603.5625 569.617188 C 597.957031 569.617188 593.410156 565.070312 593.410156 559.464844 C 593.410156 534.355469 580.789062 511.285156 559.675781 497.734375 C 547.855469 490.167969 534.191406 486.164062 520.144531 486.164062 C 500.5 486.164062 482.050781 493.816406 468.195312 507.738281 C 454.433594 521.597656 446.84375 539.96875 446.84375 559.464844 C 446.84375 565.070312 442.296875 569.617188 436.691406 569.617188 C 431.085938 569.617188 426.539062 565.070312 426.539062 559.464844 C 426.539062 534.566406 436.222656 511.113281 453.792969 493.421875 C 471.492188 475.636719 495.054688 465.855469 520.144531 465.855469 C 538.089844 465.855469 555.542969 470.96875 570.628906 480.644531 C 597.617188 497.9375 613.714844 527.40625 613.714844 559.464844 C 613.714844 565.070312 609.167969 569.617188 603.5625 569.617188 " fill-opacity="1" fill-rule="nonzero"/><path fill="#525463" d="M 686.351562 996.726562 L 686.351562 1003.878906 C 686.351562 1007.007812 688.890625 1009.539062 692.007812 1009.539062 L 807.839844 1009.539062 C 810.957031 1009.539062 813.496094 1007.007812 813.496094 1003.878906 L 813.496094 996.726562 Z M 807.839844 1027.867188 L 692.007812 1027.867188 C 678.78125 1027.867188 668.019531 1017.105469 668.019531 1003.878906 L 668.019531 995.390625 C 668.019531 986.019531 675.644531 978.394531 685.015625 978.394531 L 814.820312 978.394531 C 824.203125 978.394531 831.828125 986.019531 831.828125 995.390625 L 831.828125 1003.878906 C 831.828125 1017.105469 821.066406 1027.867188 807.839844 1027.867188 " fill-opacity="1" fill-rule="nonzero"/><path fill="#525463" d="M 686.351562 1027.867188 L 686.351562 1035.03125 C 686.351562 1038.148438 688.890625 1040.691406 692.007812 1040.691406 L 807.839844 1040.691406 C 810.957031 1040.691406 813.496094 1038.148438 813.496094 1035.03125 L 813.496094 1027.867188 Z M 807.839844 1059.019531 L 692.007812 1059.019531 C 678.78125 1059.019531 668.019531 1048.25 668.019531 1035.03125 L 668.019531 1026.542969 C 668.019531 1017.160156 675.644531 1009.539062 685.015625 1009.539062 L 814.820312 1009.539062 C 824.203125 1009.539062 831.828125 1017.160156 831.828125 1026.542969 L 831.828125 1035.03125 C 831.828125 1048.25 821.066406 1059.019531 807.839844 1059.019531 " fill-opacity="1" fill-rule="nonzero"/><path fill="#525463" d="M 686.351562 1059.019531 L 686.351562 1066.183594 C 686.351562 1069.300781 688.890625 1071.832031 692.007812 1071.832031 L 807.839844 1071.832031 C 810.957031 1071.832031 813.496094 1069.300781 813.496094 1066.183594 L 813.496094 1059.019531 Z M 807.839844 1090.164062 L 692.007812 1090.164062 C 678.78125 1090.164062 668.019531 1079.402344 668.019531 1066.183594 L 668.019531 1057.6875 C 668.019531 1048.3125 675.644531 1040.691406 685.015625 1040.691406 L 814.820312 1040.691406 C 824.203125 1040.691406 831.828125 1048.3125 831.828125 1057.6875 L 831.828125 1066.183594 C 831.828125 1079.402344 821.066406 1090.164062 807.839844 1090.164062 " fill-opacity="1" fill-rule="nonzero"/><g clip-path="url(#37266636ea)"><path fill="#525463" d="M 775.992188 1118.5625 L 723.855469 1118.5625 C 716.347656 1118.5625 709.390625 1114.835938 705.226562 1108.589844 L 690.214844 1086.085938 L 705.472656 1075.910156 L 720.46875 1098.425781 C 721.226562 1099.558594 722.488281 1100.230469 723.855469 1100.230469 L 775.992188 1100.230469 C 777.351562 1100.230469 778.621094 1099.558594 779.378906 1098.425781 L 794.378906 1075.910156 L 809.632812 1086.085938 L 794.632812 1108.589844 C 790.460938 1114.835938 783.5 1118.5625 775.992188 1118.5625 " fill-opacity="1" fill-rule="nonzero"/></g><path fill="#525463" d="M 728.710938 996.726562 L 677.277344 996.726562 C 674.660156 996.726562 672.164062 995.605469 670.421875 993.640625 C 650.738281 971.464844 644.246094 944.230469 637.957031 917.90625 C 629.835938 883.828125 622.160156 851.636719 587.152344 829.988281 L 596.792969 814.398438 C 638.226562 840.023438 647.160156 877.453125 655.785156 913.644531 C 661.488281 937.527344 666.878906 960.160156 681.535156 978.394531 L 719.542969 978.394531 L 719.542969 772.785156 C 719.542969 767.722656 723.652344 763.613281 728.710938 763.613281 C 733.773438 763.613281 737.871094 767.722656 737.871094 772.785156 L 737.871094 987.554688 C 737.871094 992.617188 733.773438 996.726562 728.710938 996.726562 " fill-opacity="1" fill-rule="nonzero"/><path fill="#f2b332" d="M 1073.308594 539.949219 C 1073.308594 368.480469 939.832031 228.261719 771.136719 217.316406 L 771.136719 987.554688 L 822.816406 987.554688 C 865.464844 939.511719 841.5625 863.347656 908.125 822.191406 L 907.871094 822.191406 C 1006.585938 766.828125 1073.308594 661.1875 1073.308594 539.949219 " fill-opacity="1" fill-rule="nonzero"/><path fill="#525463" d="M 780.296875 978.394531 L 818.558594 978.394531 C 833.214844 960.160156 838.605469 937.527344 844.308594 913.644531 C 852.824219 877.902344 861.644531 840.960938 901.773438 815.359375 C 902.253906 814.921875 902.796875 814.539062 903.386719 814.195312 C 1002.550781 758.585938 1064.148438 653.5 1064.148438 539.949219 C 1064.148438 378.121094 940.25 242.609375 780.296875 227.246094 Z M 822.816406 996.726562 L 771.136719 996.726562 C 766.078125 996.726562 761.976562 992.617188 761.976562 987.554688 L 761.976562 217.316406 C 761.976562 214.785156 763.023438 212.363281 764.871094 210.632812 C 766.714844 208.902344 769.203125 208.027344 771.734375 208.179688 C 945.980469 219.472656 1082.46875 365.214844 1082.46875 539.949219 C 1082.46875 659.542969 1017.914062 770.265625 913.867188 829.335938 C 913.570312 829.570312 913.269531 829.785156 912.941406 829.988281 C 877.933594 851.636719 870.257812 883.828125 862.136719 917.90625 C 855.847656 944.230469 849.355469 971.464844 829.671875 993.640625 C 827.929688 995.605469 825.433594 996.726562 822.816406 996.726562 " fill-opacity="1" fill-rule="nonzero"/><path fill="#525463" d="M 985.671875 391.785156 C 982.714844 391.785156 979.8125 390.355469 978.050781 387.71875 C 946.429688 340.488281 901.914062 304.691406 849.3125 284.179688 C 844.605469 282.34375 842.269531 277.027344 844.105469 272.320312 C 845.941406 267.589844 851.265625 265.273438 855.976562 267.109375 C 912.074219 288.976562 959.558594 327.164062 993.273438 377.523438 C 996.09375 381.71875 994.960938 387.417969 990.753906 390.226562 C 989.195312 391.285156 987.421875 391.785156 985.671875 391.785156 " fill-opacity="1" fill-rule="nonzero"/><g clip-path="url(#5f06bacbae)"><path fill="#525463" d="M 749.925781 144.953125 C 744.863281 144.953125 740.765625 140.84375 740.765625 135.785156 L 740.765625 69.601562 C 740.765625 64.542969 744.863281 60.441406 749.925781 60.441406 C 754.984375 60.441406 759.082031 64.542969 759.082031 69.601562 L 759.082031 135.785156 C 759.082031 140.84375 754.984375 144.953125 749.925781 144.953125 " fill-opacity="1" fill-rule="nonzero"/></g><path fill="#525463" d="M 461.332031 264.496094 C 458.980469 264.496094 456.644531 263.597656 454.851562 261.816406 L 408.058594 215.011719 C 404.472656 211.433594 404.472656 205.636719 408.058594 202.0625 C 411.636719 198.472656 417.433594 198.472656 421.007812 202.0625 L 467.8125 248.855469 C 471.386719 252.429688 471.386719 258.226562 467.8125 261.816406 C 466.015625 263.597656 463.667969 264.496094 461.332031 264.496094 " fill-opacity="1" fill-rule="nonzero"/><path fill="#525463" d="M 341.785156 553.101562 L 275.617188 553.101562 C 270.546875 553.101562 266.449219 549.003906 266.449219 543.941406 C 266.449219 538.882812 270.546875 534.78125 275.617188 534.78125 L 341.785156 534.78125 C 346.847656 534.78125 350.957031 538.882812 350.957031 543.941406 C 350.957031 549.003906 346.847656 553.101562 341.785156 553.101562 " fill-opacity="1" fill-rule="nonzero"/><path fill="#525463" d="M 414.539062 888.511719 C 412.191406 888.511719 409.84375 887.617188 408.058594 885.824219 C 404.472656 882.246094 404.472656 876.449219 408.058594 872.871094 L 454.851562 826.070312 C 458.425781 822.492188 464.234375 822.492188 467.8125 826.070312 C 471.386719 829.65625 471.386719 835.453125 467.8125 839.03125 L 421.007812 885.824219 C 419.226562 887.617188 416.878906 888.511719 414.539062 888.511719 " fill-opacity="1" fill-rule="nonzero"/><path fill="#525463" d="M 1085.320312 888.511719 C 1082.96875 888.511719 1080.621094 887.617188 1078.839844 885.824219 L 1032.035156 839.03125 C 1028.460938 835.453125 1028.460938 829.65625 1032.035156 826.070312 C 1035.613281 822.492188 1041.421875 822.492188 1044.996094 826.070312 L 1091.789062 872.871094 C 1095.375 876.449219 1095.375 882.246094 1091.789062 885.824219 C 1090.003906 887.617188 1087.65625 888.511719 1085.320312 888.511719 " fill-opacity="1" fill-rule="nonzero"/><g clip-path="url(#3219341605)"><path fill="#525463" d="M 1224.242188 553.101562 L 1158.050781 553.101562 C 1152.992188 553.101562 1148.890625 549.003906 1148.890625 543.941406 C 1148.890625 538.882812 1152.992188 534.78125 1158.050781 534.78125 L 1224.242188 534.78125 C 1229.300781 534.78125 1233.398438 538.882812 1233.398438 543.941406 C 1233.398438 549.003906 1229.300781 553.101562 1224.242188 553.101562 " fill-opacity="1" fill-rule="nonzero"/></g><path fill="#525463" d="M 1038.515625 264.496094 C 1036.167969 264.496094 1033.832031 263.597656 1032.035156 261.816406 C 1028.460938 258.226562 1028.460938 252.429688 1032.035156 248.855469 L 1078.839844 202.0625 C 1082.40625 198.472656 1088.210938 198.472656 1091.789062 202.0625 C 1095.375 205.636719 1095.375 211.433594 1091.789062 215.011719 L 1044.996094 261.816406 C 1043.214844 263.597656 1040.867188 264.496094 1038.515625 264.496094 " fill-opacity="1" fill-rule="nonzero"/><g transform="matrix(1, 0, 0, 1, 103, 1036)"><g clip-path="url(#64710e7002)"><g fill="#525463" fill-opacity="1"><g transform="translate(3.710292, 328.205374)"><g><path d="M 31.109375 0 L 31.109375 -213.484375 L 57.953125 -213.484375 L 57.953125 0 Z M 31.109375 0 "/></g></g></g><g fill="#525463" fill-opacity="1"><g transform="translate(66.832592, 328.205374)"><g><path d="M 96.6875 3.96875 C 81.03125 3.96875 67.097656 0.359375 54.890625 -6.859375 C 42.691406 -14.078125 33.132812 -23.9375 26.21875 -36.4375 C 19.3125 -48.945312 15.859375 -63.234375 15.859375 -79.296875 C 15.859375 -95.359375 19.3125 -109.585938 26.21875 -121.984375 C 33.132812 -134.390625 42.691406 -144.203125 54.890625 -151.421875 C 67.097656 -158.640625 81.03125 -162.25 96.6875 -162.25 C 109.082031 -162.25 120.460938 -159.960938 130.828125 -155.390625 C 141.203125 -150.816406 149.945312 -144.359375 157.0625 -136.015625 L 157.0625 -225.6875 L 182.6875 -225.6875 L 182.6875 0 L 161.640625 0 L 158.59375 -24.40625 C 151.476562 -15.65625 142.582031 -8.738281 131.90625 -3.65625 C 121.226562 1.425781 109.488281 3.96875 96.6875 3.96875 Z M 41.484375 -79.296875 C 41.484375 -67.910156 43.972656 -57.796875 48.953125 -48.953125 C 53.929688 -40.109375 60.789062 -33.191406 69.53125 -28.203125 C 78.28125 -23.222656 88.347656 -20.734375 99.734375 -20.734375 C 111.316406 -20.734375 121.476562 -23.222656 130.21875 -28.203125 C 138.96875 -33.191406 145.78125 -40.109375 150.65625 -48.953125 C 155.539062 -57.796875 157.984375 -67.910156 157.984375 -79.296875 C 157.984375 -90.679688 155.539062 -100.796875 150.65625 -109.640625 C 145.78125 -118.484375 138.96875 -125.394531 130.21875 -130.375 C 121.476562 -135.363281 111.316406 -137.859375 99.734375 -137.859375 C 88.347656 -137.859375 78.28125 -135.363281 69.53125 -130.375 C 60.789062 -125.394531 53.929688 -118.484375 48.953125 -109.640625 C 43.972656 -100.796875 41.484375 -90.679688 41.484375 -79.296875 Z M 41.484375 -79.296875 "/></g></g></g><g fill="#525463" fill-opacity="1"><g transform="translate(251.935595, 328.205374)"><g><path d="M 96.984375 3.96875 C 81.128906 3.96875 67.097656 0.460938 54.890625 -6.546875 C 42.691406 -13.566406 33.132812 -23.378906 26.21875 -35.984375 C 19.3125 -48.585938 15.859375 -63.023438 15.859375 -79.296875 C 15.859375 -95.554688 19.3125 -109.9375 26.21875 -122.4375 C 33.132812 -134.945312 42.742188 -144.707031 55.046875 -151.71875 C 67.347656 -158.738281 81.429688 -162.25 97.296875 -162.25 C 114.171875 -162.25 128.804688 -158.285156 141.203125 -150.359375 C 153.609375 -142.429688 163.113281 -131.503906 169.71875 -117.578125 C 176.332031 -103.648438 179.332031 -87.429688 178.71875 -68.921875 L 41.78125 -68.921875 C 43.8125 -54.078125 49.804688 -42.234375 59.765625 -33.390625 C 69.734375 -24.546875 82.242188 -20.125 97.296875 -20.125 C 107.660156 -20.125 117.113281 -22.359375 125.65625 -26.828125 C 134.195312 -31.304688 140.90625 -37.710938 145.78125 -46.046875 L 174.75 -46.046875 C 168.445312 -30.597656 158.382812 -18.398438 144.5625 -9.453125 C 130.738281 -0.503906 114.878906 3.96875 96.984375 3.96875 Z M 42.09375 -91.5 L 153.109375 -91.5 C 150.460938 -105.9375 144.101562 -117.320312 134.03125 -125.65625 C 123.96875 -133.988281 111.722656 -138.15625 97.296875 -138.15625 C 82.648438 -138.15625 70.34375 -133.882812 60.375 -125.34375 C 50.414062 -116.8125 44.320312 -105.53125 42.09375 -91.5 Z M 42.09375 -91.5 "/></g></g></g><g fill="#525463" fill-opacity="1"><g transform="translate(419.961287, 328.205374)"><g><path d="M 80.203125 2.4375 C 61.097656 2.4375 46.15625 -1.878906 35.375 -10.515625 C 24.601562 -19.160156 19.21875 -30.90625 19.21875 -45.75 C 19.21875 -60.1875 24.195312 -71.671875 34.15625 -80.203125 C 44.125 -88.742188 57.34375 -93.015625 73.8125 -93.015625 L 138.46875 -93.015625 L 138.46875 -98.8125 C 138.46875 -111.21875 134.601562 -120.925781 126.875 -127.9375 C 119.144531 -134.957031 108.570312 -138.46875 95.15625 -138.46875 C 84.988281 -138.46875 76.144531 -136.175781 68.625 -131.59375 C 61.101562 -127.019531 56.019531 -120.875 53.375 -113.15625 L 27.453125 -113.15625 C 30.910156 -128.394531 38.6875 -140.382812 50.78125 -149.125 C 62.875 -157.875 77.5625 -162.25 94.84375 -162.25 C 108.675781 -162.25 120.773438 -159.65625 131.140625 -154.46875 C 141.515625 -149.289062 149.597656 -142.070312 155.390625 -132.8125 C 161.179688 -123.5625 164.078125 -112.835938 164.078125 -100.640625 L 164.078125 0 L 143.03125 0 L 140.296875 -21.953125 C 125.859375 -5.691406 105.828125 2.4375 80.203125 2.4375 Z M 44.828125 -46.046875 C 44.828125 -38.328125 48.082031 -32.128906 54.59375 -27.453125 C 61.101562 -22.773438 69.945312 -20.4375 81.125 -20.4375 C 92.101562 -20.4375 101.863281 -22.570312 110.40625 -26.84375 C 118.945312 -31.113281 125.757812 -37.007812 130.84375 -44.53125 C 135.925781 -52.050781 138.566406 -60.691406 138.765625 -70.453125 L 74.71875 -70.453125 C 65.976562 -70.453125 58.8125 -68.265625 53.21875 -63.890625 C 47.625 -59.523438 44.828125 -53.578125 44.828125 -46.046875 Z M 44.828125 -46.046875 "/></g></g></g><g fill="#525463" fill-opacity="1"><g transform="translate(583.10777, 328.205374)"><g><path d="M 90.28125 0 L 5.1875 -213.484375 L 33.859375 -213.484375 L 69.234375 -123.515625 L 102.78125 -38.734375 L 136.015625 -123.515625 L 171.703125 -213.484375 L 200.0625 -213.484375 L 115.28125 0 Z M 90.28125 0 "/></g></g></g><g fill="#525463" fill-opacity="1"><g transform="translate(762.416673, 328.205374)"><g><path d="M 80.203125 2.4375 C 61.097656 2.4375 46.15625 -1.878906 35.375 -10.515625 C 24.601562 -19.160156 19.21875 -30.90625 19.21875 -45.75 C 19.21875 -60.1875 24.195312 -71.671875 34.15625 -80.203125 C 44.125 -88.742188 57.34375 -93.015625 73.8125 -93.015625 L 138.46875 -93.015625 L 138.46875 -98.8125 C 138.46875 -111.21875 134.601562 -120.925781 126.875 -127.9375 C 119.144531 -134.957031 108.570312 -138.46875 95.15625 -138.46875 C 84.988281 -138.46875 76.144531 -136.175781 68.625 -131.59375 C 61.101562 -127.019531 56.019531 -120.875 53.375 -113.15625 L 27.453125 -113.15625 C 30.910156 -128.394531 38.6875 -140.382812 50.78125 -149.125 C 62.875 -157.875 77.5625 -162.25 94.84375 -162.25 C 108.675781 -162.25 120.773438 -159.65625 131.140625 -154.46875 C 141.515625 -149.289062 149.597656 -142.070312 155.390625 -132.8125 C 161.179688 -123.5625 164.078125 -112.835938 164.078125 -100.640625 L 164.078125 0 L 143.03125 0 L 140.296875 -21.953125 C 125.859375 -5.691406 105.828125 2.4375 80.203125 2.4375 Z M 44.828125 -46.046875 C 44.828125 -38.328125 48.082031 -32.128906 54.59375 -27.453125 C 61.101562 -22.773438 69.945312 -20.4375 81.125 -20.4375 C 92.101562 -20.4375 101.863281 -22.570312 110.40625 -26.84375 C 118.945312 -31.113281 125.757812 -37.007812 130.84375 -44.53125 C 135.925781 -52.050781 138.566406 -60.691406 138.765625 -70.453125 L 74.71875 -70.453125 C 65.976562 -70.453125 58.8125 -68.265625 53.21875 -63.890625 C 47.625 -59.523438 44.828125 -53.578125 44.828125 -46.046875 Z M 44.828125 -46.046875 "/></g></g></g><g fill="#525463" fill-opacity="1"><g transform="translate(925.563157, 328.205374)"><g><path d="M 91.5 3.96875 C 70.757812 3.96875 54.539062 -2.738281 42.84375 -16.15625 C 31.15625 -29.582031 25.3125 -47.578125 25.3125 -70.140625 L 25.3125 -158.28125 L 50.9375 -158.28125 L 50.9375 -72.59375 C 50.9375 -56.726562 54.847656 -44.117188 62.671875 -34.765625 C 70.503906 -25.410156 81.226562 -20.734375 94.84375 -20.734375 C 109.6875 -20.734375 121.734375 -26.019531 130.984375 -36.59375 C 140.242188 -47.164062 144.875 -61.09375 144.875 -78.375 L 144.875 -158.28125 L 170.484375 -158.28125 L 170.484375 0 L 149.4375 0 L 146.703125 -23.171875 C 139.785156 -13.828125 131.5 -6.96875 121.84375 -2.59375 C 112.1875 1.78125 102.070312 3.96875 91.5 3.96875 Z M 91.5 3.96875 "/></g></g></g><g fill="#525463" fill-opacity="1"><g transform="translate(1098.468057, 328.205374)"><g><path d="M 28.359375 0 L 28.359375 -225.6875 L 53.984375 -225.6875 L 53.984375 0 Z M 28.359375 0 "/></g></g></g><g fill="#525463" fill-opacity="1"><g transform="translate(1154.881365, 328.205374)"><g><path d="M 96.6875 0 C 79.195312 0 65.625 -4.976562 55.96875 -14.9375 C 46.3125 -24.90625 41.484375 -38.9375 41.484375 -57.03125 L 41.484375 -134.796875 L 8.234375 -134.796875 L 8.234375 -158.28125 L 24.09375 -158.28125 C 31.414062 -158.28125 36.5 -159.5 39.34375 -161.9375 C 42.1875 -164.382812 44.015625 -169.164062 44.828125 -176.28125 L 47.265625 -197.625 L 67.09375 -197.625 L 67.09375 -158.28125 L 118.328125 -158.28125 L 118.328125 -134.796875 L 67.09375 -134.796875 L 67.09375 -58.25 C 67.09375 -35.882812 77.363281 -24.703125 97.90625 -24.703125 L 120.46875 -24.703125 L 120.46875 0 Z M 96.6875 0 "/></g></g></g></g></g></svg>